<svg id="ic-remove-red-eye-24px" xmlns="http://www.w3.org/2000/svg" width="15.988" height="15.988" viewBox="0 0 15.988 15.988">
  <path id="Path_20" data-name="Path 20" d="M0,0H15.988V15.988H0Z" fill="none"/>
  <path id="Path_21" data-name="Path 21" d="M8.328,4.5A7.879,7.879,0,0,0,1,9.5a7.872,7.872,0,0,0,14.656,0A7.879,7.879,0,0,0,8.328,4.5Zm0,8.327A3.331,3.331,0,1,1,11.659,9.5,3.332,3.332,0,0,1,8.328,12.827Zm0-5.329a2,2,0,1,0,2,2A2,2,0,0,0,8.328,7.5Z" transform="translate(-0.334 -1.502)" fill="#bfbfbf"/>
</svg>
