<svg xmlns="http://www.w3.org/2000/svg" width="19.274" height="19.274" viewBox="0 0 19.274 19.274">
  <g id="icons8-google" transform="translate(-4 -4)">
    <path id="Path_466" data-name="Path 466" d="M23.086,11.75H22.31v-.04H13.637v3.855h5.446a5.787,5.787,0,1,1-1.61-6.245L20.2,6.593a9.627,9.627,0,1,0,3.075,7.044A9.7,9.7,0,0,0,23.086,11.75Z" fill="#ffc107"/>
    <path id="Path_467" data-name="Path 467" d="M6.306,9.151l3.166,2.322a5.77,5.77,0,0,1,9.2-2.154l2.726-2.726A9.618,9.618,0,0,0,6.306,9.151Z" transform="translate(-1.195)" fill="#ff3d00"/>
    <path id="Path_468" data-name="Path 468" d="M14.774,35.738a9.592,9.592,0,0,0,6.461-2.5l-2.983-2.524a5.767,5.767,0,0,1-8.915-2.658L6.2,30.475A9.629,9.629,0,0,0,14.774,35.738Z" transform="translate(-1.137 -12.464)" fill="#4caf50"/>
    <path id="Path_469" data-name="Path 469" d="M33.425,20H24v3.855h5.446a5.8,5.8,0,0,1-1.969,2.684h0l2.983,2.524a9.322,9.322,0,0,0,3.176-7.135A10.12,10.12,0,0,0,33.425,20Z" transform="translate(-10.363 -8.29)" fill="#1976d2"/>
  </g>
</svg>
