<svg xmlns="http://www.w3.org/2000/svg" width="12.25" height="14" viewBox="0 0 12.25 14">
  <path id="lock-alt.2" d="M6.125,11.483a.548.548,0,0,1-.547-.547V9.186a.547.547,0,0,1,1.094,0v1.75A.548.548,0,0,1,6.125,11.483ZM12.25,7.436v5.25A1.313,1.313,0,0,1,10.937,14H1.312A1.313,1.313,0,0,1,0,12.686V7.436A1.313,1.313,0,0,1,1.312,6.124H1.75V4.374a4.375,4.375,0,1,1,8.75.041V6.124h.437A1.313,1.313,0,0,1,12.25,7.436ZM2.625,6.124h7V4.374a3.5,3.5,0,1,0-7,0Zm8.75,6.562V7.436A.439.439,0,0,0,10.937,7H1.312a.439.439,0,0,0-.437.437v5.25a.439.439,0,0,0,.437.437h9.625A.439.439,0,0,0,11.375,12.686Z" transform="translate(0 0.001)" fill="#999"/>
</svg>
