<svg xmlns="http://www.w3.org/2000/svg" width="17.701" height="13.276" viewBox="0 0 17.701 13.276">
  <path id="sign-out-alt.2" d="M12.169,71.983a.555.555,0,0,1-.553.553H6.638v3.246a.276.276,0,0,1-.47.2l-4.9-4.947a.553.553,0,0,1,0-.785l4.9-4.947a.276.276,0,0,1,.47.2v3.246h4.978a.555.555,0,0,1,.553.553v2.686m1.106,0V69.3a1.66,1.66,0,0,0-1.659-1.659H7.744V65.5a1.382,1.382,0,0,0-2.358-.978l-4.9,4.944a1.661,1.661,0,0,0,0,2.351l4.9,4.947a1.382,1.382,0,0,0,2.358-.978v-2.14h3.872A1.662,1.662,0,0,0,13.276,71.983ZM17.7,75.616V65.659A1.66,1.66,0,0,0,16.041,64H11.478a.416.416,0,0,0-.415.415v.277a.416.416,0,0,0,.415.415h4.563a.555.555,0,0,1,.553.553v9.957a.555.555,0,0,1-.553.553H11.478a.416.416,0,0,0-.415.415v.277a.416.416,0,0,0,.415.415h4.563A1.66,1.66,0,0,0,17.7,75.616Z" transform="translate(0 -64)" fill="red"/>
</svg>
