<svg xmlns="http://www.w3.org/2000/svg" width="17.5" height="14" viewBox="0 0 17.5 14">
  <path id="mail-bulk.2" d="M16.187,2.625H6.562A1.314,1.314,0,0,0,5.25,3.937v.437h.875V3.937A.437.437,0,0,1,6.562,3.5h9.625a.437.437,0,0,1,.437.437v6.125a.437.437,0,0,1-.437.437H11.375v.875h4.812A1.314,1.314,0,0,0,17.5,10.062V3.937A1.314,1.314,0,0,0,16.187,2.625ZM2.625,1.312A.437.437,0,0,1,3.062.875h7.875a.437.437,0,0,1,.437.437V1.75h.875V1.312A1.314,1.314,0,0,0,10.937,0H3.062A1.314,1.314,0,0,0,1.75,1.312V4.375h.875ZM15.312,7a.437.437,0,0,0,.437-.437V4.812a.437.437,0,0,0-.437-.437h-1.75a.437.437,0,0,0-.437.437v1.75A.437.437,0,0,0,13.562,7ZM14,5.25h.875v.875H14Zm-4.812,0H1.312A1.314,1.314,0,0,0,0,6.562v6.125A1.314,1.314,0,0,0,1.312,14H9.187A1.314,1.314,0,0,0,10.5,12.687V6.562A1.314,1.314,0,0,0,9.187,5.25Zm.437,7.437a.437.437,0,0,1-.437.437H1.312a.437.437,0,0,1-.437-.437V8.575c.35.262.875.7,2.625,1.925a3.317,3.317,0,0,0,1.75.875A3.317,3.317,0,0,0,7,10.5C8.75,9.275,9.275,8.837,9.625,8.575Zm0-5.162c-.7.525-.612.525-3.15,2.362-.262.087-.787.612-1.225.612s-.962-.525-1.225-.7C1.487,7.962,1.575,7.962.875,7.437V6.562a.437.437,0,0,1,.437-.437H9.187a.437.437,0,0,1,.437.437Z" fill="#4caf50" opacity="0.9"/>
</svg>
