<svg xmlns="http://www.w3.org/2000/svg" width="264.633" height="244.912" viewBox="0 0 264.633 244.912">
  <g id="undraw_celebrating_bol5" transform="translate(0 0)">
    <path id="Path_533" data-name="Path 533" d="M856.274,55.92s7.8-5.927,24.332,2.184,28.388,1.248,28.388,1.248l-1.872,27.14s-16.846,6.551-32.443-2.808-20.589,0-20.589,0Z" transform="translate(-646.896 -48.121)" fill="#4caf50"/>
    <path id="Path_534" data-name="Path 534" d="M474.783,262.417a91.456,91.456,0,0,1-57.4,84.864,89.52,89.52,0,0,1-9.482,3.211,91.989,91.989,0,0,1-49.021.006q-3.29-.913-6.476-2.062a90.282,90.282,0,0,1-13.972-6.417,91.413,91.413,0,0,1,40.7-170.908q2.115-.1,4.249-.1,2.344,0,4.664.115A91.39,91.39,0,0,1,474.783,262.417Z" transform="translate(-250.432 -130.772)" fill="#4caf50"/>
    <path id="Path_535" data-name="Path 535" d="M893.553,82.581A38.625,38.625,0,0,1,873.5,77.243c-6.3-3.783-11.531-5.032-15.533-3.715a8.165,8.165,0,0,0-4.842,4.11l-.811,1.949,3.244-32.1.084-.08c.276-.262,6.951-6.316,24.419,2.254,17.108,8.393,29.584,1.4,29.707,1.329l.508-.293-.04.585-1.992,28.88-.185.072A44.6,44.6,0,0,1,893.553,82.581ZM861.289,72.4c3.554,0,7.751,1.442,12.533,4.311,15.278,9.167,31.9,3.7,33.829,3.011l1.926-27.93c-2.533,1.221-14.317,6.022-29.789-1.568-16.054-7.876-22.823-3.087-23.631-2.432L853.29,76.153a8.982,8.982,0,0,1,4.483-3.217,11.179,11.179,0,0,1,3.516-.538Z" transform="translate(-645.645 -41.955)" fill="#3f3d56"/>
    <path id="Path_536" data-name="Path 536" d="M362.911,324.39a97.479,97.479,0,0,1-26.086-3.538c-2.352-.652-4.672-1.391-6.9-2.2a97.335,97.335,0,0,1,28.459-188.823c3.013-.14,6.2-.139,9.489.02A97.351,97.351,0,0,1,399.1,317.434a95.866,95.866,0,0,1-10.079,3.412A97.525,97.525,0,0,1,362.911,324.39Zm0-194.036c-1.523,0-3.035.034-4.5.1a95.755,95.755,0,0,0-38.187,9.806,96.756,96.756,0,0,0,9.911,177.807c2.21.8,4.515,1.534,6.852,2.182a97.326,97.326,0,0,0,51.865-.006,95.166,95.166,0,0,0,10.013-3.389,96.722,96.722,0,0,0-31.025-186.379c-1.673-.081-3.333-.122-4.935-.122Z" transform="translate(-231.834 -101.655)" fill="#3f3d56"/>
    <rect id="Rectangle_1111" data-name="Rectangle 1111" width="142.734" height="0.624" transform="translate(0 243.842)" fill="#3f3d56"/>
    <path id="Path_537" data-name="Path 537" d="M201.858,806.808l-.335-.126c-.074-.028-7.4-2.833-10.826-9.194s-1.751-14.021-1.733-14.1l.079-.349.335.126c.074.028,7.4,2.833,10.826,9.194s1.751,14.021,1.733,14.1Zm-10.612-9.616c2.9,5.378,8.686,8.135,10.153,8.765.279-1.571,1.153-7.926-1.745-13.3s-8.686-8.134-10.153-8.765c-.279,1.572-1.153,7.926,1.745,13.3Z" transform="translate(-177.474 -562.443)" fill="#3f3d56"/>
    <path id="Path_538" data-name="Path 538" d="M171.768,818.278c6.164,3.709,8.539,11.075,8.539,11.075s-7.62,1.354-13.785-2.355-8.539-11.075-8.539-11.075S165.6,814.57,171.768,818.278Z" transform="translate(-155.924 -585.464)" fill="#4caf50"/>
    <circle id="Ellipse_300" data-name="Ellipse 300" cx="29.201" cy="29.201" r="29.201" transform="translate(77.61 16.351)" fill="#2f2e41"/>
    <circle id="Ellipse_301" data-name="Ellipse 301" cx="20.689" cy="20.689" r="20.689" transform="translate(92.203 32.995)" fill="#a0616a"/>
    <path id="Path_539" data-name="Path 539" d="M439.752,232.229s-3.065,24.52-14.176,29.5,30.65,2.3,30.65,2.3,0-22.221,1.533-22.988S439.752,232.229,439.752,232.229Z" transform="translate(-343.334 -173.948)" fill="#a0616a"/>
    <path id="Path_540" data-name="Path 540" d="M425.572,782.176l-1.533,8.046s-21.455,12.643-11.111,16.091,22.988-14.942,22.988-14.942l-2.3-9.2Z" transform="translate(-333.752 -561.832)" fill="#a0616a"/>
    <path id="Path_541" data-name="Path 541" d="M513.283,522.656l16.858,18.007L576.5,508.481s-10.728-8.429-14.176-8.429S513.283,522.656,513.283,522.656Z" transform="translate(-406.521 -362.846)" fill="#a0616a"/>
    <path id="Path_542" data-name="Path 542" d="M822.709,178.252s4.981-34.865,13.793-32.183-4.981,37.163-4.981,37.163Z" transform="translate(-624.763 -113.075)" fill="#a0616a"/>
    <path id="Path_543" data-name="Path 543" d="M436.948,315.184s-16.718-2.682-22.918,0S389.1,320,386.781,317.017,363.77,324,363.77,328.21,408.6,396.023,408.6,396.023,454.955,383,461.085,369.2c0,0-5.364-3.831-5.364-6.9s-2.682-6.13-2.682-6.13a15.609,15.609,0,0,0-2.3-14.559C445.377,334.723,436.948,315.184,436.948,315.184Z" transform="translate(-301.068 -231.616)" fill="#d0cde1"/>
    <path id="Path_544" data-name="Path 544" d="M595.19,269.669l4.981-1.149s12.26,3.065,20.689,13.409,22.988,13.793,22.988,13.793l17.624-47.891,14.559,4.981s-11.494,60.917-24.52,61.683S606.3,301.085,606.3,301.085Z" transform="translate(-464.291 -184.952)" fill="#d0cde1"/>
    <path id="Path_545" data-name="Path 545" d="M365.316,349.239s-8.046.383-8.046,7.279,1.149,30.65,8.046,40.995,13.026,33.715,13.409,34.1,7.663,48.657,7.663,48.657l12.26-1.149-2.3-60.151-11.877-30.65Z" transform="translate(-296.483 -256.476)" fill="#d0cde1"/>
    <path id="Path_546" data-name="Path 546" d="M607.006,560.972a91.6,91.6,0,0,1-37.219,27.561l-1.937-4.218-7.527,7.421a91.99,91.99,0,0,1-49.021.006l-3.222-2.062,17.242-19.925s.384-9.961,0-11.492-5.412-15.439-5.412-15.439c17.473-1.107,42.457-23.272,48.244-28.616.8-.736,1.229-1.154,1.229-1.154,32.181,4.6,36.779,42.142,36.779,42.142Z" transform="translate(-402.851 -372.019)" fill="#2f2e41"/>
    <ellipse id="Ellipse_302" data-name="Ellipse 302" cx="1.872" cy="3.899" rx="1.872" ry="3.899" transform="translate(90.211 50.536)" fill="#a0616a"/>
    <circle id="Ellipse_303" data-name="Ellipse 303" cx="12.166" cy="12.166" r="12.166" transform="translate(68.062 5.615)" fill="#2f2e41"/>
    <path id="Path_547" data-name="Path 547" d="M373.078,46.622a12.166,12.166,0,0,1,10.761-12.083,12.166,12.166,0,1,0,0,24.166A12.166,12.166,0,0,1,373.078,46.622Z" transform="translate(-305.64 -34.456)" fill="#2f2e41"/>
    <rect id="Rectangle_1112" data-name="Rectangle 1112" width="4.367" height="45.857" transform="translate(206.258 7.175)" fill="#2f2e41"/>
    <path id="Path_548" data-name="Path 548" d="M449.708,132.3s5.615,11.854,12.478,12.166,32.443-4.679,32.443-4.679l-8.423-17.469-22.461,2.808Z" transform="translate(-361.681 -96.427)" fill="#2f2e41"/>
  </g>
</svg>
